<svg width="151" height="37" viewBox="0 0 151 37" fill="none" xmlns="http://www.w3.org/2000/svg">
<mask id="mask0_1_86" style="mask-type:alpha" maskUnits="userSpaceOnUse" x="0" y="0" width="37" height="37">
<rect width="36.3021" height="36.3021" fill="black"/>
</mask>
<g mask="url(#mask0_1_86)">
<rect width="36.3021" height="36.3021" rx="3" fill="url(#paint0_linear_1_86)"/>
<rect x="-44.2077" y="37.6248" width="57.872" height="57.872" transform="rotate(-45 -44.2077 37.6248)" fill="white" fill-opacity="0.1"/>
<rect x="4.3562" y="14.405" width="8.47048" height="16.5727" fill="white" fill-opacity="0.42"/>
<rect x="13.3107" y="5.56628" width="9.68055" height="25.4114" fill="white"/>
<path d="M23.4753 17.7196H31.9458V30.9777H23.4753V17.7196Z" fill="white" fill-opacity="0.31"/>
</g>
<path d="M46.5501 19.9092C46.5501 18.6283 46.8108 17.5112 47.3321 16.558C47.8534 15.5898 48.5757 14.8451 49.4992 14.3238C50.4226 13.7876 51.4801 13.5195 52.6717 13.5195C54.2058 13.5195 55.4718 13.9068 56.4698 14.6813C57.4826 15.4409 58.1603 16.5133 58.5028 17.8985H55.1293C54.9505 17.3623 54.6452 16.9452 54.2133 16.6473C53.7962 16.3346 53.2749 16.1782 52.6494 16.1782C51.7557 16.1782 51.0482 16.5058 50.5269 17.1612C50.0056 17.8016 49.745 18.7177 49.745 19.9092C49.745 21.0859 50.0056 22.0019 50.5269 22.6572C51.0482 23.2977 51.7557 23.6179 52.6494 23.6179C53.9154 23.6179 54.742 23.0519 55.1293 21.9199H58.5028C58.1603 23.2604 57.4826 24.3254 56.4698 25.1148C55.4569 25.9042 54.1909 26.2989 52.6717 26.2989C51.4801 26.2989 50.4226 26.0382 49.4992 25.5169C48.5757 24.9807 47.8534 24.236 47.3321 23.2828C46.8108 22.3146 46.5501 21.1901 46.5501 19.9092Z" fill="#0E0661"/>
<path d="M65.8434 26.2989C64.6519 26.2989 63.5795 26.0382 62.6263 25.5169C61.673 24.9807 60.9208 24.2286 60.3698 23.2604C59.8336 22.2923 59.5655 21.1752 59.5655 19.9092C59.5655 18.6432 59.841 17.5261 60.3921 16.558C60.9581 15.5898 61.7251 14.8451 62.6933 14.3238C63.6614 13.7876 64.7413 13.5195 65.9328 13.5195C67.1244 13.5195 68.2042 13.7876 69.1723 14.3238C70.1405 14.8451 70.9001 15.5898 71.4512 16.558C72.0172 17.5261 72.3001 18.6432 72.3001 19.9092C72.3001 21.1752 72.0097 22.2923 71.4288 23.2604C70.8628 24.2286 70.0883 24.9807 69.1053 25.5169C68.1372 26.0382 67.0499 26.2989 65.8434 26.2989ZM65.8434 23.5732C66.4094 23.5732 66.9382 23.4392 67.4297 23.1711C67.9361 22.8881 68.3382 22.471 68.6361 21.9199C68.934 21.3688 69.083 20.6986 69.083 19.9092C69.083 18.7325 68.7702 17.8314 68.1446 17.2059C67.5339 16.5654 66.7818 16.2452 65.8881 16.2452C64.9945 16.2452 64.2423 16.5654 63.6316 17.2059C63.0358 17.8314 62.738 18.7325 62.738 19.9092C62.738 21.0859 63.0284 21.9944 63.6093 22.6349C64.2051 23.2604 64.9498 23.5732 65.8434 23.5732Z" fill="#0E0661"/>
<path d="M81.0065 13.5419C82.4811 13.5419 83.6726 14.011 84.5812 14.9494C85.4897 15.8728 85.944 17.1686 85.944 18.8368V26.0978H82.8162V19.2613C82.8162 18.2783 82.5705 17.5261 82.0789 17.0048C81.5874 16.4686 80.9172 16.2005 80.0682 16.2005C79.2043 16.2005 78.5192 16.4686 78.0128 17.0048C77.5213 17.5261 77.2755 18.2783 77.2755 19.2613V26.0978H74.1477V13.7206H77.2755V15.2622C77.6925 14.726 78.2213 14.3089 78.8618 14.011C79.5171 13.6982 80.232 13.5419 81.0065 13.5419Z" fill="#0E0661"/>
<path d="M92.1133 16.2899V22.2774C92.1133 22.6944 92.2101 22.9998 92.4037 23.1934C92.6122 23.3721 92.9548 23.4615 93.4314 23.4615H94.8836V26.0978H92.9176C90.2813 26.0978 88.9631 24.8169 88.9631 22.2551V16.2899H87.4886V13.7206H88.9631V10.6598H92.1133V13.7206H94.8836V16.2899H92.1133Z" fill="#0E0661"/>
<path d="M108.192 19.6411C108.192 20.0879 108.163 20.4901 108.103 20.8475H99.0547C99.1292 21.7412 99.4419 22.4412 99.993 22.9477C100.544 23.4541 101.222 23.7073 102.026 23.7073C103.188 23.7073 104.015 23.2083 104.506 22.2104H107.88C107.522 23.4019 106.837 24.385 105.824 25.1595C104.811 25.9191 103.568 26.2989 102.093 26.2989C100.902 26.2989 99.8292 26.0382 98.8759 25.5169C97.9376 24.9807 97.2003 24.2286 96.6641 23.2604C96.1428 22.2923 95.8822 21.1752 95.8822 19.9092C95.8822 18.6283 96.1428 17.5038 96.6641 16.5356C97.1854 15.5675 97.9153 14.8228 98.8536 14.3015C99.792 13.7802 100.872 13.5195 102.093 13.5195C103.27 13.5195 104.32 13.7727 105.243 14.2791C106.182 14.7855 106.904 15.5079 107.41 16.4463C107.932 17.3697 108.192 18.4347 108.192 19.6411ZM104.953 18.7474C104.938 17.9431 104.648 17.3027 104.082 16.8261C103.516 16.3346 102.823 16.0888 102.004 16.0888C101.229 16.0888 100.574 16.3271 100.038 16.8037C99.5164 17.2655 99.1962 17.9134 99.077 18.7474H104.953Z" fill="#0E0661"/>
<path d="M116.887 13.5419C118.362 13.5419 119.554 14.011 120.462 14.9494C121.371 15.8728 121.825 17.1686 121.825 18.8368V26.0978H118.697V19.2613C118.697 18.2783 118.451 17.5261 117.96 17.0048C117.468 16.4686 116.798 16.2005 115.949 16.2005C115.085 16.2005 114.4 16.4686 113.894 17.0048C113.402 17.5261 113.156 18.2783 113.156 19.2613V26.0978H110.029V13.7206H113.156V15.2622C113.573 14.726 114.102 14.3089 114.743 14.011C115.398 13.6982 116.113 13.5419 116.887 13.5419Z" fill="#0E0661"/>
<path d="M123.548 19.8645C123.548 18.6134 123.794 17.5038 124.285 16.5356C124.792 15.5675 125.477 14.8228 126.341 14.3015C127.205 13.7802 128.165 13.5195 129.223 13.5195C130.027 13.5195 130.794 13.6982 131.524 14.0557C132.254 14.3983 132.835 14.86 133.267 15.4409V9.56506H136.439V26.0978H133.267V24.2658C132.879 24.8765 132.336 25.368 131.636 25.7403C130.936 26.1127 130.124 26.2989 129.201 26.2989C128.158 26.2989 127.205 26.0308 126.341 25.4946C125.477 24.9584 124.792 24.2062 124.285 23.2381C123.794 22.2551 123.548 21.1305 123.548 19.8645ZM133.289 19.9092C133.289 19.1496 133.14 18.5017 132.842 17.9655C132.544 17.4144 132.142 16.9974 131.636 16.7144C131.129 16.4165 130.586 16.2675 130.005 16.2675C129.424 16.2675 128.888 16.409 128.396 16.692C127.905 16.975 127.503 17.3921 127.19 17.9431C126.892 18.4793 126.743 19.1198 126.743 19.8645C126.743 20.6092 126.892 21.2646 127.19 21.8306C127.503 22.3817 127.905 22.8062 128.396 23.104C128.903 23.4019 129.439 23.5509 130.005 23.5509C130.586 23.5509 131.129 23.4094 131.636 23.1264C132.142 22.8285 132.544 22.4115 132.842 21.8753C133.14 21.3242 133.289 20.6688 133.289 19.9092Z" fill="#0E0661"/>
<path d="M144.543 26.2989C143.352 26.2989 142.279 26.0382 141.326 25.5169C140.373 24.9807 139.621 24.2286 139.07 23.2604C138.533 22.2923 138.265 21.1752 138.265 19.9092C138.265 18.6432 138.541 17.5261 139.092 16.558C139.658 15.5898 140.425 14.8451 141.393 14.3238C142.361 13.7876 143.441 13.5195 144.633 13.5195C145.824 13.5195 146.904 13.7876 147.872 14.3238C148.84 14.8451 149.6 15.5898 150.151 16.558C150.717 17.5261 151 18.6432 151 19.9092C151 21.1752 150.71 22.2923 150.129 23.2604C149.563 24.2286 148.788 24.9807 147.805 25.5169C146.837 26.0382 145.75 26.2989 144.543 26.2989ZM144.543 23.5732C145.109 23.5732 145.638 23.4392 146.13 23.1711C146.636 22.8881 147.038 22.471 147.336 21.9199C147.634 21.3688 147.783 20.6986 147.783 19.9092C147.783 18.7325 147.47 17.8314 146.844 17.2059C146.234 16.5654 145.482 16.2452 144.588 16.2452C143.694 16.2452 142.942 16.5654 142.331 17.2059C141.736 17.8314 141.438 18.7325 141.438 19.9092C141.438 21.0859 141.728 21.9944 142.309 22.6349C142.905 23.2604 143.65 23.5732 144.543 23.5732Z" fill="#0E0661"/>
<defs>
<linearGradient id="paint0_linear_1_86" x1="36.3021" y1="0" x2="0" y2="36.3021" gradientUnits="userSpaceOnUse">
<stop offset="0.00441945" stop-color="#0846E7"/>
<stop offset="1" stop-color="#F000D8"/>
</linearGradient>
</defs>
</svg>
